<?xml version="1.0" encoding="UTF-8" standalone="no"?>
<!DOCTYPE svg PUBLIC "-//W3C//DTD SVG 1.1//EN"
 "http://www.w3.org/Graphics/SVG/1.1/DTD/svg11.dtd">
<!-- Generated by graphviz version 2.40.1 (20161225.0304)
 -->
<!-- Title: dependencies Pages: 1 -->
<svg width="1301pt" height="284pt"
 viewBox="0.00 0.00 1301.00 284.00" xmlns="http://www.w3.org/2000/svg" xmlns:xlink="http://www.w3.org/1999/xlink">
<g id="graph0" class="graph" transform="scale(1 1) rotate(0) translate(4 280)">
<title>dependencies</title>
<polygon fill="#ffffff" stroke="transparent" points="-4,4 -4,-280 1297,-280 1297,4 -4,4"/>
<text text-anchor="start" x="625.5091" y="-42.4" font-family="sans-serif" font-weight="bold" font-size="14.00" fill="#000000">Legend</text>
<polygon fill="#ffffb3" stroke="transparent" points="412.5,-10 412.5,-30 432.5,-30 432.5,-10 412.5,-10"/>
<text text-anchor="start" x="436.129" y="-15.4" font-family="sans-serif" font-size="14.00" fill="#000000"> &#160;Declarations</text>
<polygon fill="#8dd3c7" stroke="transparent" points="525.5,-10 525.5,-30 545.5,-30 545.5,-10 525.5,-10"/>
<text text-anchor="start" x="549.2251" y="-15.4" font-family="sans-serif" font-size="14.00" fill="#000000"> &#160;Module</text>
<polygon fill="#80b1d3" stroke="transparent" points="611.5,-10 611.5,-30 631.5,-30 631.5,-10 611.5,-10"/>
<text text-anchor="start" x="635.2812" y="-15.4" font-family="sans-serif" font-size="14.00" fill="#000000"> &#160;Bootstrap</text>
<polygon fill="#fdb462" stroke="transparent" points="708.5,-10 708.5,-30 728.5,-30 728.5,-10 708.5,-10"/>
<text text-anchor="start" x="732.1732" y="-15.4" font-family="sans-serif" font-size="14.00" fill="#000000"> &#160;Providers</text>
<polygon fill="#fb8072" stroke="transparent" points="804.5,-10 804.5,-30 824.5,-30 824.5,-10 804.5,-10"/>
<text text-anchor="start" x="828.2258" y="-15.4" font-family="sans-serif" font-size="14.00" fill="#000000"> &#160;Exports</text>
<g id="clust1" class="cluster">
<title>cluster_AppModule</title>
<polygon fill="none" stroke="#000000" stroke-dasharray="1,5" points="8,-70 8,-268 1285,-268 1285,-70 8,-70"/>
</g>
<g id="clust2" class="cluster">
<title>cluster_AppModule_declarations</title>
<polygon fill="none" stroke="#000000" points="156,-78 156,-130 1277,-130 1277,-78 156,-78"/>
</g>
<g id="clust13" class="cluster">
<title>cluster_AppModule_bootstrap</title>
<polygon fill="none" stroke="#000000" points="603,-208 603,-260 727,-260 727,-208 603,-208"/>
</g>
<g id="clust14" class="cluster">
<title>cluster_AppModule_providers</title>
<polygon fill="none" stroke="#000000" points="16,-78 16,-130 148,-130 148,-78 16,-78"/>
</g>
<!-- AppComponent -->
<g id="node1" class="node">
<title>AppComponent</title>
<polygon fill="#ffffb3" stroke="#000000" points="1268.9399,-122 1163.0601,-122 1163.0601,-86 1268.9399,-86 1268.9399,-122"/>
<text text-anchor="middle" x="1216" y="-99.8" font-family="Times,serif" font-size="14.00" fill="#000000">AppComponent</text>
</g>
<!-- AppModule -->
<g id="node9" class="node">
<title>AppModule</title>
<polygon fill="#8dd3c7" stroke="#000000" points="706.6571,-187 703.6571,-191 682.6571,-191 679.6571,-187 623.3429,-187 623.3429,-151 706.6571,-151 706.6571,-187"/>
<text text-anchor="middle" x="665" y="-164.8" font-family="Times,serif" font-size="14.00" fill="#000000">AppModule</text>
</g>
<!-- AppComponent&#45;&gt;AppModule -->
<g id="edge1" class="edge">
<title>AppComponent&#45;&gt;AppModule</title>
<path fill="none" stroke="#000000" d="M1216,-122.0109C1216,-144.4852 1216,-180 1216,-180 1216,-180 716.8668,-180 716.8668,-180"/>
<polygon fill="#000000" stroke="#000000" points="716.8668,-176.5001 706.8668,-180 716.8668,-183.5001 716.8668,-176.5001"/>
</g>
<!-- TopoComponent -->
<g id="node2" class="node">
<title>TopoComponent</title>
<polygon fill="#ffffb3" stroke="#000000" points="1145.3851,-122 1034.6149,-122 1034.6149,-86 1145.3851,-86 1145.3851,-122"/>
<text text-anchor="middle" x="1090" y="-99.8" font-family="Times,serif" font-size="14.00" fill="#000000">TopoComponent</text>
</g>
<!-- TopoComponent&#45;&gt;AppModule -->
<g id="edge2" class="edge">
<title>TopoComponent&#45;&gt;AppModule</title>
<path fill="none" stroke="#000000" d="M1090,-122.1289C1090,-142.5724 1090,-173 1090,-173 1090,-173 716.9138,-173 716.9138,-173"/>
<polygon fill="#000000" stroke="#000000" points="716.9138,-169.5001 706.9138,-173 716.9137,-176.5001 716.9138,-169.5001"/>
</g>
<!-- HomeComponent -->
<g id="node3" class="node">
<title>HomeComponent</title>
<polygon fill="#ffffb3" stroke="#000000" points="1016.5451,-122 901.4549,-122 901.4549,-86 1016.5451,-86 1016.5451,-122"/>
<text text-anchor="middle" x="959" y="-99.8" font-family="Times,serif" font-size="14.00" fill="#000000">HomeComponent</text>
</g>
<!-- HomeComponent&#45;&gt;AppModule -->
<g id="edge3" class="edge">
<title>HomeComponent&#45;&gt;AppModule</title>
<path fill="none" stroke="#000000" d="M959,-122.2667C959,-140.5552 959,-166 959,-166 959,-166 716.8108,-166 716.8108,-166"/>
<polygon fill="#000000" stroke="#000000" points="716.8108,-162.5001 706.8108,-166 716.8108,-169.5001 716.8108,-162.5001"/>
</g>
<!-- RodapeComponent -->
<g id="node4" class="node">
<title>RodapeComponent</title>
<polygon fill="#ffffb3" stroke="#000000" points="883.0982,-122 758.9018,-122 758.9018,-86 883.0982,-86 883.0982,-122"/>
<text text-anchor="middle" x="821" y="-99.8" font-family="Times,serif" font-size="14.00" fill="#000000">RodapeComponent</text>
</g>
<!-- RodapeComponent&#45;&gt;AppModule -->
<g id="edge4" class="edge">
<title>RodapeComponent&#45;&gt;AppModule</title>
<path fill="none" stroke="#000000" d="M821,-122.0091C821,-138.0494 821,-159 821,-159 821,-159 716.8051,-159 716.8051,-159"/>
<polygon fill="#000000" stroke="#000000" points="716.8052,-155.5001 706.8051,-159 716.8051,-162.5001 716.8052,-155.5001"/>
</g>
<!-- RestaurantesComponent -->
<g id="node5" class="node">
<title>RestaurantesComponent</title>
<polygon fill="#ffffb3" stroke="#000000" points="741.3585,-122 588.6415,-122 588.6415,-86 741.3585,-86 741.3585,-122"/>
<text text-anchor="middle" x="665" y="-99.8" font-family="Times,serif" font-size="14.00" fill="#000000">RestaurantesComponent</text>
</g>
<!-- RestaurantesComponent&#45;&gt;AppModule -->
<g id="edge5" class="edge">
<title>RestaurantesComponent&#45;&gt;AppModule</title>
<path fill="none" stroke="#000000" d="M665,-122.1061C665,-122.1061 665,-140.991 665,-140.991"/>
<polygon fill="#000000" stroke="#000000" points="661.5001,-140.9909 665,-150.991 668.5001,-140.991 661.5001,-140.9909"/>
</g>
<!-- DiversaoComponent -->
<g id="node6" class="node">
<title>DiversaoComponent</title>
<polygon fill="#ffffb3" stroke="#000000" points="570.8641,-122 439.1359,-122 439.1359,-86 570.8641,-86 570.8641,-122"/>
<text text-anchor="middle" x="505" y="-99.8" font-family="Times,serif" font-size="14.00" fill="#000000">DiversaoComponent</text>
</g>
<!-- DiversaoComponent&#45;&gt;AppModule -->
<g id="edge6" class="edge">
<title>DiversaoComponent&#45;&gt;AppModule</title>
<path fill="none" stroke="#000000" d="M505,-122.0091C505,-138.0494 505,-159 505,-159 505,-159 612.9619,-159 612.9619,-159"/>
<polygon fill="#000000" stroke="#000000" points="612.9619,-162.5001 622.9619,-159 612.9618,-155.5001 612.9619,-162.5001"/>
</g>
<!-- OfertaComponent -->
<g id="node7" class="node">
<title>OfertaComponent</title>
<polygon fill="#ffffb3" stroke="#000000" points="421.58,-122 304.42,-122 304.42,-86 421.58,-86 421.58,-122"/>
<text text-anchor="middle" x="363" y="-99.8" font-family="Times,serif" font-size="14.00" fill="#000000">OfertaComponent</text>
</g>
<!-- OfertaComponent&#45;&gt;AppModule -->
<g id="edge7" class="edge">
<title>OfertaComponent&#45;&gt;AppModule</title>
<path fill="none" stroke="#000000" d="M363,-122.2667C363,-140.5552 363,-166 363,-166 363,-166 613.3253,-166 613.3253,-166"/>
<polygon fill="#000000" stroke="#000000" points="613.3253,-169.5001 623.3253,-166 613.3252,-162.5001 613.3253,-169.5001"/>
</g>
<!-- OfertasComponent -->
<g id="node8" class="node">
<title>OfertasComponent</title>
<polygon fill="#ffffb3" stroke="#000000" points="286.0255,-122 163.9745,-122 163.9745,-86 286.0255,-86 286.0255,-122"/>
<text text-anchor="middle" x="225" y="-99.8" font-family="Times,serif" font-size="14.00" fill="#000000">OfertasComponent</text>
</g>
<!-- OfertasComponent&#45;&gt;AppModule -->
<g id="edge8" class="edge">
<title>OfertasComponent&#45;&gt;AppModule</title>
<path fill="none" stroke="#000000" d="M225,-122.1289C225,-142.5724 225,-173 225,-173 225,-173 613.2092,-173 613.2092,-173"/>
<polygon fill="#000000" stroke="#000000" points="613.2092,-176.5001 623.2092,-173 613.2092,-169.5001 613.2092,-176.5001"/>
</g>
<!-- AppComponent  -->
<g id="node10" class="node">
<title>AppComponent </title>
<polygon fill="#80b1d3" stroke="#000000" points="719.439,-252 610.561,-252 610.561,-216 719.439,-216 719.439,-252"/>
<text text-anchor="middle" x="665" y="-229.8" font-family="Times,serif" font-size="14.00" fill="#000000">AppComponent </text>
</g>
<!-- AppModule&#45;&gt;AppComponent  -->
<g id="edge9" class="edge">
<title>AppModule&#45;&gt;AppComponent </title>
<path fill="none" stroke="#000000" stroke-dasharray="1,5" d="M665,-187.1061C665,-187.1061 665,-205.991 665,-205.991"/>
<polygon fill="#000000" stroke="#000000" points="661.5001,-205.9909 665,-215.991 668.5001,-205.991 661.5001,-205.9909"/>
</g>
<!-- DataService -->
<g id="node11" class="node">
<title>DataService</title>
<ellipse fill="#fdb462" stroke="#000000" cx="82" cy="-104" rx="58.4415" ry="18"/>
<text text-anchor="middle" x="82" y="-99.8" font-family="Times,serif" font-size="14.00" fill="#000000">DataService</text>
</g>
<!-- DataService&#45;&gt;AppModule -->
<g id="edge10" class="edge">
<title>DataService&#45;&gt;AppModule</title>
<path fill="none" stroke="#000000" d="M82,-122.0109C82,-144.4852 82,-180 82,-180 82,-180 613.0721,-180 613.0721,-180"/>
<polygon fill="#000000" stroke="#000000" points="613.0721,-183.5001 623.0721,-180 613.072,-176.5001 613.0721,-183.5001"/>
</g>
</g>
</svg>
